#Combined_Mesh_(root:_scene)_3.obj

v 36.11405 -1.499983 23.85046
v 36.11405 -0.4999828 23.85046
v 36.11404 -0.4999828 3.963134
v 36.11404 -1.499983 3.963134
v 36.11405 -0.4999828 23.85046
v -16.58744 -0.4999828 23.85046
v -16.58745 -0.4999828 3.96314
v 36.11404 -0.4999828 3.963134
v -16.58744 -0.4999828 23.85046
v -16.58744 -1.499983 23.85046
v -16.58745 -1.499983 3.96314
v -16.58745 -0.4999828 3.96314
v -16.58744 -1.499983 23.85046
v 36.11405 -1.499983 23.85046
v 36.11404 -1.499983 3.963134
v -16.58745 -1.499983 3.96314
v 36.11404 -1.499983 3.963134
v 36.11404 -0.4999828 3.963134
v -16.58745 -0.4999828 3.96314
v -16.58745 -1.499983 3.96314
v -16.58744 -1.499983 23.85046
v -16.58744 -0.4999828 23.85046
v 36.11405 -0.4999828 23.85046
v 36.11405 -1.499983 23.85046
v 69.81067 -1.499983 23.85045
v 69.81067 -0.4999828 23.85045
v 69.81066 -0.4999828 3.963129
v 69.81066 -1.499983 3.963129
v 69.81067 -0.4999828 23.85045
v 36.11156 -0.4999828 23.85046
v 36.11155 -0.4999828 3.963133
v 69.81066 -0.4999828 3.963129
v 36.11156 -0.4999828 23.85046
v 36.11156 -1.499983 23.85046
v 36.11155 -1.499983 3.963133
v 36.11155 -0.4999828 3.963133
v 36.11156 -1.499983 23.85046
v 69.81067 -1.499983 23.85045
v 69.81066 -1.499983 3.963129
v 36.11155 -1.499983 3.963133
v 69.81066 -1.499983 3.963129
v 69.81066 -0.4999828 3.963129
v 36.11155 -0.4999828 3.963133
v 36.11155 -1.499983 3.963133
v 36.11156 -1.499983 23.85046
v 36.11156 -0.4999828 23.85046
v 69.81067 -0.4999828 23.85045
v 69.81067 -1.499983 23.85045
v -17.19275 -1.499983 4.06369
v -17.19275 -0.4999829 4.06369
v -17.19275 -0.4999829 -12.24129
v -17.19275 -1.499983 -12.24129
v -17.19275 -0.4999829 4.06369
v -33.18726 -0.4999829 4.063692
v -33.18726 -0.4999829 -12.24129
v -17.19275 -0.4999829 -12.24129
v -33.18726 -0.4999829 4.063692
v -33.18726 -1.499983 4.063692
v -33.18726 -1.499983 -12.24129
v -33.18726 -0.4999829 -12.24129
v -33.18726 -1.499983 4.063692
v -17.19275 -1.499983 4.06369
v -17.19275 -1.499983 -12.24129
v -33.18726 -1.499983 -12.24129
v -17.19275 -1.499983 -12.24129
v -17.19275 -0.4999829 -12.24129
v -33.18726 -0.4999829 -12.24129
v -33.18726 -1.499983 -12.24129
v -33.18726 -1.499983 4.063692
v -33.18726 -0.4999829 4.063692
v -17.19275 -0.4999829 4.06369
v -17.19275 -1.499983 4.06369
v -16.58682 -1.499983 23.85046
v -16.58682 -0.4999829 23.85046
v -16.58682 -0.4999829 3.96314
v -16.58682 -1.499983 3.96314
v -16.58682 -0.4999829 23.85046
v -44.28478 -0.4999829 23.85047
v -44.28478 -0.4999829 3.963143
v -16.58682 -0.4999829 3.96314
v -44.28478 -0.4999829 23.85047
v -44.28478 -1.499983 23.85047
v -44.28478 -1.499983 3.963143
v -44.28478 -0.4999829 3.963143
v -44.28478 -1.499983 23.85047
v -16.58682 -1.499983 23.85046
v -16.58682 -1.499983 3.96314
v -44.28478 -1.499983 3.963143
v -16.58682 -1.499983 3.96314
v -16.58682 -0.4999829 3.96314
v -44.28478 -0.4999829 3.963143
v -44.28478 -1.499983 3.963143
v -44.28478 -1.499983 23.85047
v -44.28478 -0.4999829 23.85047
v -16.58682 -0.4999829 23.85046
v -16.58682 -1.499983 23.85046
v -8.103099 -1.499983 28.66555
v -8.103099 -0.4999829 28.66555
v -8.103099 -0.4999829 23.85046
v -8.103099 -1.499983 23.85046
v -8.103099 -0.4999829 28.66555
v -33.1889 -0.4999829 28.66555
v -33.1889 -0.4999829 23.85046
v -8.103099 -0.4999829 23.85046
v -33.1889 -0.4999829 28.66555
v -33.1889 -1.499983 28.66555
v -33.1889 -1.499983 23.85046
v -33.1889 -0.4999829 23.85046
v -33.1889 -1.499983 28.66555
v -8.103099 -1.499983 28.66555
v -8.103099 -1.499983 23.85046
v -33.1889 -1.499983 23.85046
v -8.103099 -1.499983 23.85046
v -8.103099 -0.4999829 23.85046
v -33.1889 -0.4999829 23.85046
v -33.1889 -1.499983 23.85046
v -33.1889 -1.499983 28.66555
v -33.1889 -0.4999829 28.66555
v -8.103099 -0.4999829 28.66555
v -8.103099 -1.499983 28.66555

vn 1 0 -1.192093E-07
vn 1 0 -1.192093E-07
vn 1 0 -1.192093E-07
vn 1 0 -1.192093E-07
vn 0 1 0
vn 0 1 0
vn 0 1 0
vn 0 1 0
vn -1 0 1.192093E-07
vn -1 0 1.192093E-07
vn -1 0 1.192093E-07
vn -1 0 1.192093E-07
vn 0 -1 0
vn 0 -1 0
vn 0 -1 0
vn 0 -1 0
vn -1.192093E-07 0 -1
vn -1.192093E-07 0 -1
vn -1.192093E-07 0 -1
vn -1.192093E-07 0 -1
vn 1.192093E-07 0 1
vn 1.192093E-07 0 1
vn 1.192093E-07 0 1
vn 1.192093E-07 0 1
vn 1 0 -1.192093E-07
vn 1 0 -1.192093E-07
vn 1 0 -1.192093E-07
vn 1 0 -1.192093E-07
vn 0 1 0
vn 0 1 0
vn 0 1 0
vn 0 1 0
vn -1 0 1.192093E-07
vn -1 0 1.192093E-07
vn -1 0 1.192093E-07
vn -1 0 1.192093E-07
vn 0 -1 0
vn 0 -1 0
vn 0 -1 0
vn 0 -1 0
vn -1.192093E-07 0 -1
vn -1.192093E-07 0 -1
vn -1.192093E-07 0 -1
vn -1.192093E-07 0 -1
vn 1.192093E-07 0 1
vn 1.192093E-07 0 1
vn 1.192093E-07 0 1
vn 1.192093E-07 0 1
vn 1 0 -1.192093E-07
vn 1 0 -1.192093E-07
vn 1 0 -1.192093E-07
vn 1 0 -1.192093E-07
vn 0 1 0
vn 0 1 0
vn 0 1 0
vn 0 1 0
vn -1 0 1.192093E-07
vn -1 0 1.192093E-07
vn -1 0 1.192093E-07
vn -1 0 1.192093E-07
vn 0 -1 0
vn 0 -1 0
vn 0 -1 0
vn 0 -1 0
vn -1.192093E-07 0 -1
vn -1.192093E-07 0 -1
vn -1.192093E-07 0 -1
vn -1.192093E-07 0 -1
vn 1.192093E-07 0 1
vn 1.192093E-07 0 1
vn 1.192093E-07 0 1
vn 1.192093E-07 0 1
vn 1 0 -1.192093E-07
vn 1 0 -1.192093E-07
vn 1 0 -1.192093E-07
vn 1 0 -1.192093E-07
vn 0 1 0
vn 0 1 0
vn 0 1 0
vn 0 1 0
vn -1 0 1.192093E-07
vn -1 0 1.192093E-07
vn -1 0 1.192093E-07
vn -1 0 1.192093E-07
vn 0 -1 0
vn 0 -1 0
vn 0 -1 0
vn 0 -1 0
vn -1.192093E-07 0 -1
vn -1.192093E-07 0 -1
vn -1.192093E-07 0 -1
vn -1.192093E-07 0 -1
vn 1.192093E-07 0 1
vn 1.192093E-07 0 1
vn 1.192093E-07 0 1
vn 1.192093E-07 0 1
vn 1 0 -1.192093E-07
vn 1 0 -1.192093E-07
vn 1 0 -1.192093E-07
vn 1 0 -1.192093E-07
vn 0 1 0
vn 0 1 0
vn 0 1 0
vn 0 1 0
vn -1 0 1.192093E-07
vn -1 0 1.192093E-07
vn -1 0 1.192093E-07
vn -1 0 1.192093E-07
vn 0 -1 0
vn 0 -1 0
vn 0 -1 0
vn 0 -1 0
vn -1.192093E-07 0 -1
vn -1.192093E-07 0 -1
vn -1.192093E-07 0 -1
vn -1.192093E-07 0 -1
vn 1.192093E-07 0 1
vn 1.192093E-07 0 1
vn 1.192093E-07 0 1
vn 1.192093E-07 0 1

vt 0 0
vt 0 1
vt 1 1
vt 1 0
vt 0 0
vt 0 1
vt 1 1
vt 1 0
vt 0 0
vt 0 1
vt 1 1
vt 1 0
vt 0 0
vt 0 1
vt 1 1
vt 1 0
vt 0 0
vt 0 1
vt 1 1
vt 1 0
vt 0 0
vt 0 1
vt 1 1
vt 1 0
vt 0 0
vt 0 1
vt 1 1
vt 1 0
vt 0 0
vt 0 1
vt 1 1
vt 1 0
vt 0 0
vt 0 1
vt 1 1
vt 1 0
vt 0 0
vt 0 1
vt 1 1
vt 1 0
vt 0 0
vt 0 1
vt 1 1
vt 1 0
vt 0 0
vt 0 1
vt 1 1
vt 1 0
vt 0 0
vt 0 1
vt 1 1
vt 1 0
vt 0 0
vt 0 1
vt 1 1
vt 1 0
vt 0 0
vt 0 1
vt 1 1
vt 1 0
vt 0 0
vt 0 1
vt 1 1
vt 1 0
vt 0 0
vt 0 1
vt 1 1
vt 1 0
vt 0 0
vt 0 1
vt 1 1
vt 1 0
vt 0 0
vt 0 1
vt 1 1
vt 1 0
vt 0 0
vt 0 1
vt 1 1
vt 1 0
vt 0 0
vt 0 1
vt 1 1
vt 1 0
vt 0 0
vt 0 1
vt 1 1
vt 1 0
vt 0 0
vt 0 1
vt 1 1
vt 1 0
vt 0 0
vt 0 1
vt 1 1
vt 1 0
vt 0 0
vt 0 1
vt 1 1
vt 1 0
vt 0 0
vt 0 1
vt 1 1
vt 1 0
vt 0 0
vt 0 1
vt 1 1
vt 1 0
vt 0 0
vt 0 1
vt 1 1
vt 1 0
vt 0 0
vt 0 1
vt 1 1
vt 1 0
vt 0 0
vt 0 1
vt 1 1
vt 1 0

g Combined_Mesh_(root:_scene)_3
usemtl Combined_Mesh_(root:_scene)_3
usemap Combined_Mesh_(root:_scene)_3
f 1/1/1 3/3/3 2/2/2
f 1/1/1 4/4/4 3/3/3
f 5/5/5 7/7/7 6/6/6
f 5/5/5 8/8/8 7/7/7
f 9/9/9 11/11/11 10/10/10
f 9/9/9 12/12/12 11/11/11
f 13/13/13 15/15/15 14/14/14
f 13/13/13 16/16/16 15/15/15
f 17/17/17 19/19/19 18/18/18
f 17/17/17 20/20/20 19/19/19
f 21/21/21 23/23/23 22/22/22
f 21/21/21 24/24/24 23/23/23
g Combined_Mesh_(root:_scene)_3_1
usemtl Combined_Mesh_(root:_scene)_3_1
usemap Combined_Mesh_(root:_scene)_3_1
f 25/25/25 27/27/27 26/26/26
f 25/25/25 28/28/28 27/27/27
f 29/29/29 31/31/31 30/30/30
f 29/29/29 32/32/32 31/31/31
f 33/33/33 35/35/35 34/34/34
f 33/33/33 36/36/36 35/35/35
f 37/37/37 39/39/39 38/38/38
f 37/37/37 40/40/40 39/39/39
f 41/41/41 43/43/43 42/42/42
f 41/41/41 44/44/44 43/43/43
f 45/45/45 47/47/47 46/46/46
f 45/45/45 48/48/48 47/47/47
g Combined_Mesh_(root:_scene)_3_2
usemtl Combined_Mesh_(root:_scene)_3_2
usemap Combined_Mesh_(root:_scene)_3_2
f 49/49/49 51/51/51 50/50/50
f 49/49/49 52/52/52 51/51/51
f 53/53/53 55/55/55 54/54/54
f 53/53/53 56/56/56 55/55/55
f 57/57/57 59/59/59 58/58/58
f 57/57/57 60/60/60 59/59/59
f 61/61/61 63/63/63 62/62/62
f 61/61/61 64/64/64 63/63/63
f 65/65/65 67/67/67 66/66/66
f 65/65/65 68/68/68 67/67/67
f 69/69/69 71/71/71 70/70/70
f 69/69/69 72/72/72 71/71/71
g Combined_Mesh_(root:_scene)_3_3
usemtl Combined_Mesh_(root:_scene)_3_3
usemap Combined_Mesh_(root:_scene)_3_3
f 73/73/73 75/75/75 74/74/74
f 73/73/73 76/76/76 75/75/75
f 77/77/77 79/79/79 78/78/78
f 77/77/77 80/80/80 79/79/79
f 81/81/81 83/83/83 82/82/82
f 81/81/81 84/84/84 83/83/83
f 85/85/85 87/87/87 86/86/86
f 85/85/85 88/88/88 87/87/87
f 89/89/89 91/91/91 90/90/90
f 89/89/89 92/92/92 91/91/91
f 93/93/93 95/95/95 94/94/94
f 93/93/93 96/96/96 95/95/95
g Combined_Mesh_(root:_scene)_3_4
usemtl Combined_Mesh_(root:_scene)_3_4
usemap Combined_Mesh_(root:_scene)_3_4
f 97/97/97 99/99/99 98/98/98
f 97/97/97 100/100/100 99/99/99
f 101/101/101 103/103/103 102/102/102
f 101/101/101 104/104/104 103/103/103
f 105/105/105 107/107/107 106/106/106
f 105/105/105 108/108/108 107/107/107
f 109/109/109 111/111/111 110/110/110
f 109/109/109 112/112/112 111/111/111
f 113/113/113 115/115/115 114/114/114
f 113/113/113 116/116/116 115/115/115
f 117/117/117 119/119/119 118/118/118
f 117/117/117 120/120/120 119/119/119
